# xmcd CD database file
#
# Track frame offsets:
#	150
#	22595
#	46950
#	70517
#	93662
#	124075
#	147207
#	168955
#	189022
#
# Disc length: 2881 seconds
#
# Revision: 2
# Processed by: cddbd v1.5.1PL0 Copyright (c) Steve Scherf et al.
# Submitted via: CDex 1.51
#
DISCID=660b3f09
DTITLE=ルーク篁 - 篁
DYEAR=1991
DGENRE=Japanese Rock
TTITLE0=REMEMBER FLAME
TTITLE1=ロックスターの悲劇って・・・
TTITLE2=CUTE BOYのユ・ウ・ウ・ツ
TTITLE3=PRESSURE LIFE
TTITLE4=SHADY LOVER
TTITLE5=DECADENCE LOVE
TTITLE6=LOVE COMES TO YOU
TTITLE7=SOMEDAY ONEDAY
TTITLE8=DREAM OF THE LOTUS LAND
EXTD=YEAR: 1991
EXTT0=
EXTT1=
EXTT2=
EXTT3=
EXTT4=
EXTT5=
EXTT6=
EXTT7=
EXTT8=
PLAYORDER=
